<?xml version="1.0" encoding="utf-8"?>
<!-- Generator: Adobe Illustrator 21.1.0, SVG Export Plug-In . SVG Version: 6.00 Build 0)  -->
<svg version="1.1" id="Ebene_1" xmlns="http://www.w3.org/2000/svg" xmlns:xlink="http://www.w3.org/1999/xlink" x="0px" y="0px"
	 viewBox="0 0 22 22" style="enable-background:new 0 0 22 22;" xml:space="preserve">
<style type="text/css">
	.st0{fill:#999999;}
</style>
<g id="Ebene_1_1_">
</g>
<g>
	<g>
		<g>
			<path class="st0" d="M20.354,0H1.622C0.727,0,0,0.71,0,1.584v18.811c0,0.875,0.727,1.586,1.622,1.586h18.732
				c0.897,0,1.627-0.711,1.627-1.586V1.584C21.982,0.71,21.251,0,20.354,0z M6.519,18.731h-3.26V8.241H6.52L6.519,18.731
				L6.519,18.731z M4.89,6.807c-1.045,0-1.891-0.847-1.891-1.891c0-1.043,0.846-1.89,1.891-1.89c1.042,0,1.889,0.847,1.889,1.89
				C6.779,5.96,5.932,6.807,4.89,6.807z M18.731,18.731h-3.258V13.63c0-1.216-0.022-2.781-1.694-2.781
				c-1.696,0-1.957,1.325-1.957,2.693v5.189H8.564V8.241h3.127v1.433h0.044C12.17,8.849,13.234,7.98,14.82,7.98
				c3.301,0,3.911,2.173,3.911,4.997C18.731,12.977,18.731,18.731,18.731,18.731z"/>
		</g>
	</g>
</g>
</svg>
