<svg xmlns="http://www.w3.org/2000/svg" width="104" height="58.543" viewBox="0 0 104 58.543"><defs><style>.a,.b,.c{fill:#fff;}.a{font-size:10px;}.a,.b{font-family:VolvoSerifRomanRoman, VolvoSerif Roman;letter-spacing:0.3em;}.b{font-size:7px;}</style></defs><g transform="translate(-1157 -22.2)"><text class="a" transform="translate(1157 69.317)"><tspan x="0" y="0">CENTRETOILE</tspan></text><text class="b" transform="translate(1199 78.743)"><tspan x="0" y="0">HUY</tspan></text><path class="c" d="M396.012-21.26c1.211-.212,2.484-.36,3.634-.629a31.172,31.172,0,0,0,6.485-2,7.632,7.632,0,0,0,4.363-4.767,4.955,4.955,0,0,0-1.451-5.041,7.919,7.919,0,0,0-5.738-2.286c-5.127-.232-9.788,1.437-14.222,3.807a26.971,26.971,0,0,0-7.445,5.765,16.771,16.771,0,0,0-4.4,8.869,8.5,8.5,0,0,0,.318,4.283c.948,2.659,3.087,3.87,5.613,4.408,4.067.867,8.1.284,12.081-.7a4.055,4.055,0,0,0,.786-.41,6.378,6.378,0,0,1,1.117-6.243,8.327,8.327,0,0,1,4.191-2.668,3.063,3.063,0,0,1,3.4,1.383,2.212,2.212,0,0,1,.206,2,14.259,14.259,0,0,1-4.6,5.98c-.119.1-.245.2-.355.306-.027.027,0,.1,0,.319a29.479,29.479,0,0,0,3.234.624,19.079,19.079,0,0,0,7.127-.3,7.866,7.866,0,0,0,4.079-2.555,1.958,1.958,0,0,1-.94,1.962,11.169,11.169,0,0,1-4.176,2.08,16.93,16.93,0,0,1-9.3-.077c-.721-.212-1.4-.548-2.191-.861a26.025,26.025,0,0,1-12.148,1.786c-3.747-.233-7.052-1.586-9.23-4.945a9.005,9.005,0,0,1-1.289-6.552,19.614,19.614,0,0,1,7.268-12.116A33.138,33.138,0,0,1,398.286-37.2c3.248-.573,6.622-.649,9.662,1.171a9.035,9.035,0,0,1,3.373,3.471,5.708,5.708,0,0,1-.976,6.9,10.482,10.482,0,0,1-2.585,1.944c-3.636,2.01-7.636,2.53-11.68,2.815Zm6.982,4.733a4.895,4.895,0,0,0-5.136,5.825A13.306,13.306,0,0,0,402.994-16.527Z" transform="translate(813.984 59.757)"/></g></svg>