<svg xmlns="http://www.w3.org/2000/svg" xmlns:xlink="http://www.w3.org/1999/xlink" width="56.4" height="56.4" viewBox="0 0 56.4 56.4"><defs><style>.a{fill:url(#a);}.b{fill:url(#b);}.c,.e{opacity:0.4;}.c{fill:url(#c);}.d{fill:#fff;}.e{fill:url(#d);}.f{fill:#565f64;}.g{fill:url(#e);}.h{fill:rgba(164,170,174,0.6);}.i{fill:#333e46;}.j{fill:url(#f);}.k{fill:url(#g);}.l{opacity:0.8;fill:url(#h);}.m{fill:url(#i);}.n{fill:url(#j);}.o{fill:url(#k);}.p{fill:url(#l);}.q{fill:url(#m);}.r{fill:url(#n);}.s{fill:#fbfbfb;}.t{fill:#333f47;}</style><linearGradient id="a" x1="0.117" y1="0.856" x2="0.883" y2="0.213" gradientUnits="objectBoundingBox"><stop offset="0" stop-color="#fff"/><stop offset="0.1" stop-color="#e7e8e6"/><stop offset="0.1" stop-color="#cdd0d0"/><stop offset="0.2" stop-color="#b5bbbd"/><stop offset="0.2" stop-color="#a5acaf"/><stop offset="0.3" stop-color="#9ba3a7"/><stop offset="0.3" stop-color="#98a0a4"/><stop offset="0.4" stop-color="#828a8f"/><stop offset="0.5" stop-color="#667075"/><stop offset="0.6" stop-color="#535c63"/><stop offset="0.7" stop-color="#475158"/><stop offset="0.8" stop-color="#434d54"/><stop offset="1" stop-color="#475157"/></linearGradient><linearGradient id="b" x1="0.117" y1="0.859" x2="0.882" y2="0.216" gradientUnits="objectBoundingBox"><stop offset="0" stop-color="#0b1f2a"/><stop offset="0.2" stop-color="#333f47"/><stop offset="0.5" stop-color="#777f84"/><stop offset="0.5" stop-color="#81898d"/><stop offset="0.7" stop-color="#b3b8b8"/><stop offset="0.8" stop-color="#d2d5d3"/><stop offset="0.8" stop-color="#dee0dd"/><stop offset="1" stop-color="#fbfbfb"/></linearGradient><linearGradient id="c" x1="32.793" y1="-6.762" x2="33.135" y2="-7.703" gradientUnits="objectBoundingBox"><stop offset="0" stop-color="#e1e3e1"/><stop offset="0.1" stop-color="#c1c5c4"/><stop offset="0.3" stop-color="#9ba1a2"/><stop offset="0.5" stop-color="#7d8487"/><stop offset="0.7" stop-color="#687074" stop-opacity="0"/><stop offset="0.8" stop-color="#5b6469" stop-opacity="0"/><stop offset="1" stop-color="#576065" stop-opacity="0"/></linearGradient><linearGradient id="d" x1="0.25" y1="0.972" x2="0.75" y2="0.106" xlink:href="#c"/><linearGradient id="e" x1="0.504" y1="-0.419" x2="0.434" y2="-0.618" gradientUnits="objectBoundingBox"><stop offset="0" stop-color="#27343c"/><stop offset="1" stop-color="#00111e" stop-opacity="0"/></linearGradient><linearGradient id="f" x1="1.71" y1="1.205" x2="1.043" y2="1.371" gradientUnits="objectBoundingBox"><stop offset="0.1" stop-color="#02131f"/><stop offset="0.9" stop-color="#02131f" stop-opacity="0"/></linearGradient><linearGradient id="g" x1="1.003" y1="-0.201" x2="0.833" y2="-0.286" gradientUnits="objectBoundingBox"><stop offset="0.2" stop-color="#02131f" stop-opacity="0.8"/><stop offset="0.9" stop-color="#02131f" stop-opacity="0"/></linearGradient><linearGradient id="h" x1="0.531" y1="-0.638" x2="0.506" y2="-0.529" gradientUnits="objectBoundingBox"><stop offset="0" stop-color="#02131f"/><stop offset="0.1" stop-color="#02131f"/><stop offset="1" stop-color="#02131f" stop-opacity="0"/></linearGradient><linearGradient id="i" x1="0.788" y1="1.626" x2="0.064" y2="1.611" gradientUnits="objectBoundingBox"><stop offset="0.3" stop-color="#02131f"/><stop offset="0.8" stop-color="#02131f" stop-opacity="0"/></linearGradient><linearGradient id="j" x1="0.81" y1="1.628" x2="0.321" y2="1.617" gradientUnits="objectBoundingBox"><stop offset="0.4" stop-color="#27343c"/><stop offset="1" stop-color="#3b474e" stop-opacity="0"/></linearGradient><linearGradient id="k" x1="-0.048" y1="0.331" x2="1.204" y2="-0.069" gradientUnits="objectBoundingBox"><stop offset="0" stop-color="#24303a" stop-opacity="0"/><stop offset="0" stop-color="#25323b" stop-opacity="0"/><stop offset="0.1" stop-color="#27343c"/></linearGradient><linearGradient id="l" x1="0.5" y1="-0.802" x2="0.5" y2="0.211" gradientUnits="objectBoundingBox"><stop offset="0.3" stop-color="#a5abaf"/><stop offset="1" stop-color="#a5abaf" stop-opacity="0"/></linearGradient><linearGradient id="m" x1="0.5" y1="1.009" x2="0.5" y2="0.009" gradientUnits="objectBoundingBox"><stop offset="0" stop-color="#dee0dd"/><stop offset="0" stop-color="#c5c9c7"/><stop offset="0" stop-color="#9ea4a5"/><stop offset="0" stop-color="#82898c"/><stop offset="0" stop-color="#71797d"/><stop offset="0" stop-color="#6b7378"/><stop offset="0.2" stop-color="#333f47"/><stop offset="0.5" stop-color="#27343c"/><stop offset="0.8" stop-color="#333f47"/><stop offset="1" stop-color="#434d54"/></linearGradient><linearGradient id="n" x1="0.845" y1="1.344" x2="0.333" y2="0.86" gradientUnits="objectBoundingBox"><stop offset="0.7" stop-color="#27343c"/><stop offset="0.7" stop-color="#2b373f"/><stop offset="0.7" stop-color="#36424a"/><stop offset="0.7" stop-color="#49545b"/><stop offset="0.8" stop-color="#646d73" stop-opacity="0"/><stop offset="0.8" stop-color="#868d92" stop-opacity="0"/><stop offset="0.8" stop-color="#b0b5b8" stop-opacity="0"/><stop offset="0.8" stop-color="#e1e3e4" stop-opacity="0"/><stop offset="0.8" stop-color="#fff" stop-opacity="0"/></linearGradient></defs><path class="a" d="M55.866,28.283A27.583,27.583,0,1,1,28.283.7,27.568,27.568,0,0,1,55.866,28.283ZM28.283,2.374A25.909,25.909,0,1,0,54.192,28.283,25.838,25.838,0,0,0,28.283,2.374Z" transform="translate(-0.083 -0.083)"/><path class="b" d="M28.509,2.6A25.909,25.909,0,1,0,54.417,28.509,25.838,25.838,0,0,0,28.509,2.6Zm0,50.143A24.234,24.234,0,1,1,52.743,28.509,24.221,24.221,0,0,1,28.509,52.743Z" transform="translate(-0.309 -0.309)"/><path class="c" d="M28.2,55.783A27.583,27.583,0,1,0,.617,28.2,27.568,27.568,0,0,0,28.2,55.783ZM28.2,0A28.2,28.2,0,1,1,0,28.2,28.283,28.283,0,0,1,28.2,0Z"/><path class="d" d="M2.2,28.549A26.346,26.346,0,0,1,28.461,2.2h0A26.289,26.289,0,0,1,54.722,28.549h0A26.2,26.2,0,0,1,28.461,54.722h0A26.2,26.2,0,0,1,2.2,28.549ZM10.4,10.4A25.655,25.655,0,0,0,2.817,28.549h0a25.583,25.583,0,0,0,7.491,18.066h0a25.951,25.951,0,0,0,18.154,7.491h0a25.218,25.218,0,0,0,18.066-7.491h0a25.218,25.218,0,0,0,7.491-18.066h0A25.951,25.951,0,0,0,46.527,10.4h0A25.294,25.294,0,0,0,28.461,2.817h0A25.294,25.294,0,0,0,10.4,10.4Z" transform="translate(-0.261 -0.261)"/><path class="e" d="M28.722,53.045A24.3,24.3,0,0,1,11.538,11.538,24.3,24.3,0,1,1,45.907,45.907a24.13,24.13,0,0,1-17.184,7.138Zm0-.705A23.529,23.529,0,1,0,12.067,12.155,22.912,22.912,0,0,0,5.105,28.722,23.619,23.619,0,0,0,28.722,52.34Z" transform="translate(-0.522 -0.522)"/><path class="d" d="M32.4,31.4" transform="translate(-3.848 -3.729)"/><path class="d" d="M50.481,40.084c-.441-.353-17.449-13.836-17.449-13.836L29.067,3.6a1.505,1.505,0,0,0-.793.705l-2.82,22.031L7.917,39.819s-.352.441-.529.7a1.718,1.718,0,0,0-.088.7h0l21.679-8.9,21.679,8.9h0A1.257,1.257,0,0,0,50.481,40.084Z" transform="translate(-0.867 -0.428)"/><path class="f" d="M32.176,32.783,32,36.837l19.916,8.019a1.587,1.587,0,0,0,1.763-.176L32.441,32.7A.169.169,0,0,0,32.176,32.783Z" transform="translate(-3.8 -3.878)"/><path class="g" d="M32.2,32.783a21.05,21.05,0,0,0,2.467,3.437,20.354,20.354,0,0,0,4.318,3.437l12.954,5.2A1.587,1.587,0,0,0,53.7,44.68L32.464,32.7A.169.169,0,0,0,32.2,32.783Z" transform="translate(-3.824 -3.878)"/><path class="h" d="M53.7,43.559c0-.088-.088-.176-.176-.353L35.367,29.9,32.9,31.486s.176.088.264,0a2.205,2.205,0,0,1,1.322,0c.441.176,19.211,12.161,19.211,12.161Z" transform="translate(-3.907 -3.551)"/><path class="i" d="M53.413,42.695,36.493,29.3h0l-.793.529L53.854,43.224A2.336,2.336,0,0,0,53.413,42.695Z" transform="translate(-4.239 -3.479)"/><path class="f" d="M32.429,28.022l-.088.088s0,.176.176.088c.088-.088,2.644-1.41,3.525-1.939L32.958,5.11A1.535,1.535,0,0,0,31.9,3.7l.353,24.5Z" transform="translate(-3.788 -0.439)"/><path class="h" d="M30.539,5.169V6.315L28.6,25.791a.8.8,0,0,0,.352.7l1.146.881.793-21.5L30.979,4.2A1.433,1.433,0,0,0,30.539,5.169Z" transform="translate(-3.396 -0.499)"/><path class="h" d="M26.964,30.781,25.906,29.9,8.017,42.854s-.529.353-.617.705h0l.617-.353h0L26.787,31.4C27.14,31.222,27.228,31.046,26.964,30.781Z" transform="translate(-0.879 -3.551)"/><path class="f" d="M28.8,32.783c0-.088-.088-.176-.176-.088L7.3,44.768a1.772,1.772,0,0,0,1.763.176l19.916-8.019Z" transform="translate(-0.867 -3.878)"/><path class="j" d="M32.4,28.194l.088-.088-.088.088h0a.086.086,0,0,0,.088.088h.088c.088-.088,2.644-1.41,3.525-1.939l-.352-2.556h0L33.017,5.193a1.077,1.077,0,0,0-.264-.793s1.322,17.8,1.322,19.74A5.752,5.752,0,0,1,32.4,28.194Z" transform="translate(-3.848 -0.522)"/><path class="k" d="M28.8,32.783c0-.088-.088-.176-.176-.088L7.3,44.768a1.772,1.772,0,0,0,1.763.176l19.916-8.019Z" transform="translate(-0.867 -3.878)"/><path class="l" d="M9.169,44.9l19.916-8.019L28.909,33a5.047,5.047,0,0,1-2.644,3.084h0c-1.234.705-13.042,6.521-17.272,8.548a5.565,5.565,0,0,1-.793.352A.965.965,0,0,0,9.169,44.9Z" transform="translate(-0.974 -3.919)"/><path class="m" d="M32.429,28.022l-.088.088s0,.176.176.088c.088-.088,2.644-1.41,3.525-1.939L32.958,5.11A1.535,1.535,0,0,0,31.9,3.7l.353,24.5Z" transform="translate(-3.788 -0.439)"/><path class="n" d="M32.429,28.022l-.088.088s0,.176.176.088c.088-.088,2.644-1.41,3.525-1.939L32.958,5.11A1.535,1.535,0,0,0,31.9,3.7l.353,24.5Z" transform="translate(-3.788 -0.439)"/><path class="o" d="M4.577,41.5C3.961,40.092.436,33.219,4.313,20h-1.5a43.608,43.608,0,0,0-1.762,6.609s-.176.881-.264,1.851A20.047,20.047,0,0,0,.7,30.575a23.073,23.073,0,0,0,1.322,8.372A25.727,25.727,0,0,0,9.248,50.315a25.278,25.278,0,0,0,11.1,5.2C19.735,55.426,9.16,50.932,4.577,41.5Z" transform="translate(-0.083 -2.375)"/><path class="p" d="M32.293,32.6H31.5c.088,0,.176,0,.176.088l.176,4.054h.088l.176-4.054c0-.088.088-.176.176-.088Z" transform="translate(-3.741 -3.866)"/><path class="q" d="M40.813,2.3C50.066,5.825,58.79,15.519,58.79,27.768A26.741,26.741,0,0,1,32,54.646v1.41A27.6,27.6,0,0,0,40.813,2.3Z" transform="translate(-3.8 -0.273)"/><path class="r" d="M55.974,18.169A25.081,25.081,0,0,0,35.088,3.1H35C45.663,5.039,52.449,12,54.828,19.315V19.4A27.666,27.666,0,0,1,56.5,28.48a24.1,24.1,0,0,1-1.939,9.694c-.088.441-.176.969-.264.969h1.41C59.939,31.212,58.089,23.192,55.974,18.169Z" transform="translate(-4.156 -0.368)"/><path class="s" d="M2.2,28.549A26.346,26.346,0,0,1,28.461,2.2h0A26.289,26.289,0,0,1,54.722,28.549h0A26.2,26.2,0,0,1,28.461,54.722h0A26.2,26.2,0,0,1,2.2,28.549ZM10.4,10.4A25.655,25.655,0,0,0,2.817,28.549h0a25.583,25.583,0,0,0,7.491,18.066h0a25.951,25.951,0,0,0,18.154,7.491h0a25.218,25.218,0,0,0,18.066-7.491h0a25.218,25.218,0,0,0,7.491-18.066h0A25.951,25.951,0,0,0,46.527,10.4h0A25.294,25.294,0,0,0,28.461,2.817h0A25.294,25.294,0,0,0,10.4,10.4Z" transform="translate(-0.261 -0.261)"/><path class="t" d="M7.9,40h0L25.877,27.048a18.233,18.233,0,0,0,2.732,1.234c.176.088.176-.088.176-.088l-2.2-1.851a.8.8,0,0,1-.353-.7L28.345,4.4c-.088.088-.088.264-.176.353a.794.794,0,0,0-.088.441L25,26.431,8.076,39.738C7.988,39.826,7.9,39.914,7.9,40Z" transform="translate(-0.938 -0.522)"/></svg>