<svg xmlns="http://www.w3.org/2000/svg" width="102.733" height="27.518" viewBox="0 0 102.733 27.518"><defs><style>.a{fill:#fff;}</style></defs><rect class="a" width="3.761" height="0.917" transform="translate(64.942 6.513)"/><path class="a" d="M2.293,1.192,1.926,9.906v.183c0,.734.183.917,1.376,1.009v.367a12.447,12.447,0,0,0-1.651-.092A12.447,12.447,0,0,0,0,11.466V11.1c1.192-.092,1.376-.183,1.376-1.1l.367-8.255V1.651C1.743.917,1.468.734.367.642V.183A7.921,7.921,0,0,0,1.743.275,8.9,8.9,0,0,0,3.3.183L6.421,8.714,9.631.183a11.13,11.13,0,0,0,1.651.092A7.921,7.921,0,0,0,12.658.183V.642c-1.1.092-1.376.275-1.376,1.009v.092L11.466,10c0,.917.183,1.009,1.376,1.1v.367a20.182,20.182,0,0,0-2.11-.092,20.182,20.182,0,0,0-2.11.092V11.1C9.723,11.007,10,10.824,10,10.09V10L9.815,1.284,6.971,8.714l-.183.55-.275.642-.183.642-.183.55H5.87l-.183-.55-.275-.642-.183-.642-.183-.642ZM17.153,11.1c-1.559,0-2.2-1.192-2.2-3.852H20C20,4.678,18.9,3.3,16.878,3.3s-3.3,1.651-3.3,4.219,1.284,4.128,3.394,4.128A2.8,2.8,0,0,0,19.9,8.9h-.642c-.183,1.376-.917,2.2-2.11,2.2M14.951,6.6c.183-1.926.826-2.935,1.926-2.935s1.651.917,1.743,2.935Zm5.962-2.752V3.577a12.169,12.169,0,0,0,2.2-.367c.092.642.092.917.183,1.376V4.77A2.224,2.224,0,0,1,25.225,3.21a1.375,1.375,0,0,1,1.468,1.376.749.749,0,0,1-.734.826c-.367,0-.734-.275-.734-.55V4.4c0-.275-.183-.367-.55-.367-.917,0-1.468,1.1-1.468,2.752v3.486c0,.734.183.826,1.192.917v.367a15.007,15.007,0,0,0-1.835-.092,16.38,16.38,0,0,0-1.926.092v-.367c1.009-.092,1.192-.183,1.192-.917v-5.6c0-.734-.092-.826-1.009-.826ZM33.2,3.119V5.87h-.367q-.413-2.2-1.926-2.2c-1.284,0-2.018,1.376-2.018,3.761s.642,3.577,1.926,3.577c1.009,0,1.651-.734,1.835-2.2h.734c-.183,1.835-1.192,2.752-2.66,2.752-1.926,0-3.3-1.651-3.3-4.128S28.8,3.21,30.728,3.21a2.169,2.169,0,0,1,1.743.734l.459-.826Zm4.953,7.98c-1.559,0-2.2-1.192-2.2-3.852H41C41,4.678,39.9,3.3,37.883,3.3s-3.3,1.651-3.3,4.219,1.284,4.128,3.394,4.128A2.8,2.8,0,0,0,40.91,8.9h-.642c-.183,1.376-.917,2.2-2.11,2.2M35.957,6.6c.183-1.926.826-2.935,1.926-2.935s1.651.917,1.743,2.935ZM48.8,9.723V0A18.5,18.5,0,0,1,46.23.459V.734c1.1,0,1.192.092,1.192,1.009V4.678c-.642-1.009-1.1-1.284-2.018-1.284-1.835,0-3.027,1.743-3.027,4.128s1.284,4.128,3.119,4.128a2.264,2.264,0,0,0,2.11-1.376,7.312,7.312,0,0,0,.275,1.376,10.284,10.284,0,0,1,1.926-.367h.275v-.275c-1.192-.183-1.284-.275-1.284-1.284m-3.21,1.468c-1.192,0-1.835-1.284-1.835-3.669,0-2.477.55-3.669,1.835-3.669s1.926,1.284,1.926,3.761c-.092,2.293-.734,3.577-1.926,3.577M54.21,11.1c-1.559,0-2.2-1.192-2.2-3.852h5.045c0-2.568-1.1-3.944-3.119-3.944s-3.3,1.651-3.3,4.219,1.284,4.128,3.394,4.128A2.8,2.8,0,0,0,56.962,8.9H56.32c-.183,1.376-.917,2.2-2.11,2.2M52.009,6.6c.183-1.926.826-2.935,1.926-2.935s1.651.917,1.743,2.935Zm6.421,5.045V8.806H58.8c.275,1.559,1.009,2.293,2.2,2.293A1.6,1.6,0,0,0,62.741,9.54c0-.55-.275-.917-1.1-1.376L61,7.888l-.826-.275C58.98,7.063,58.521,6.6,58.521,5.6c0-1.376,1.009-2.2,2.568-2.2a3.242,3.242,0,0,1,1.743.55l.275-.734h.275V5.779h-.367c-.183-1.376-.734-2.018-1.743-2.018a1.458,1.458,0,0,0-1.559,1.376c0,.642.275.917,1.743,1.559l.734.275c1.284.55,1.743,1.1,1.743,2.11a2.474,2.474,0,0,1-2.752,2.385,2.9,2.9,0,0,1-2.018-.734l-.367.734H58.43ZM76.591,2.935A2.487,2.487,0,0,0,75.582.826,3.265,3.265,0,0,0,73.289.183h-4.4V.642c1.192.092,1.376.183,1.376,1.1V9.906c0,.917-.092,1.009-1.376,1.1v.367h4.219a5.23,5.23,0,0,0,2.66-.55,3.215,3.215,0,0,0,1.376-2.66,2.663,2.663,0,0,0-1.009-2.2,2.714,2.714,0,0,0-1.376-.55,2.53,2.53,0,0,0,1.835-2.477M71.638.734h1.468c1.376,0,2.018.734,2.018,2.293a2.483,2.483,0,0,1-.55,1.743c-.367.459-.826.55-1.743.55H71.638Zm1.651,5.045a2.2,2.2,0,0,1,1.743.55,2.843,2.843,0,0,1,.642,1.926c0,1.651-.826,2.66-2.385,2.66h-.642c-.917,0-1.009-.092-1.009-.917V5.779Zm8.806,5.32c-1.559,0-2.2-1.192-2.2-3.852h5.045C84.847,4.678,83.838,3.3,81.82,3.3s-3.3,1.651-3.3,4.219,1.284,4.128,3.394,4.128A2.8,2.8,0,0,0,84.847,8.9H84.2c-.183,1.376-.917,2.2-2.11,2.2M79.893,6.6c.183-1.926.826-2.935,1.926-2.935s1.651.917,1.743,2.935Zm5.87-2.66V3.669a6.412,6.412,0,0,0,2.2-.55c.092.367.092.826.183,1.468A2.532,2.532,0,0,1,90.442,3.3a2.262,2.262,0,0,1,2.2,1.376,3.655,3.655,0,0,1,.275,1.559v4.036c0,.734.183.826,1.192.917v.367a18.391,18.391,0,0,0-3.669,0v-.367c.917,0,1.1-.183,1.1-.917V6.146c0-1.468-.459-2.018-1.559-2.018s-1.743.734-1.743,2.11v4.036c0,.642.183.826,1.1.917v.367a14.269,14.269,0,0,0-1.835-.092,15.007,15.007,0,0,0-1.835.092v-.367c1.009-.092,1.192-.183,1.192-.917V4.77c0-.734-.092-.826-.917-.826h-.183m8.989,7.522,4.586-7.522H97.23c-1.1,0-1.376.275-1.926,1.743h-.367l.367-2.2h5.779L96.5,11.007h1.926c1.1,0,1.651-.459,2.11-2.018h.367l-.459,2.385H94.753Z"/><path class="a" d="M28.111,19.992v.55H26.277v6.513h-.642V20.542H23.8v-.55Zm1.651,0v2.66a1.574,1.574,0,0,1,1.468-.734,1.657,1.657,0,0,1,1.376.642c.183.275.183.55.183,1.559v2.844h-.55V24.119c0-.826,0-1.009-.183-1.284a1.012,1.012,0,0,0-.917-.459c-.917,0-1.376.642-1.376,1.835v2.844h-.55V19.992Zm4.861,4.586c0,1.376.55,2.11,1.559,2.11a1.263,1.263,0,0,0,1.192-.826l.55.092a1.684,1.684,0,0,1-1.743,1.192c-1.284,0-2.11-1.009-2.11-2.568,0-1.651.826-2.66,2.018-2.66s1.926,1.009,1.926,2.477v.183Zm2.752-.459c-.092-1.1-.55-1.743-1.376-1.743s-1.284.642-1.468,1.743Zm5.137-4.128v2.844a1.573,1.573,0,0,1,1.468-.917c1.192,0,1.926,1.009,1.926,2.568s-.826,2.66-1.926,2.66a1.513,1.513,0,0,1-1.376-.826V26.5a.993.993,0,0,1-.092.55h-.55a4.932,4.932,0,0,0,.092-1.468v-5.6Zm0,4.586c0,1.284.55,2.11,1.376,2.11s1.376-.826,1.376-2.11-.55-2.11-1.376-2.11C43.062,22.377,42.512,23.2,42.512,24.578Zm4.953,0c0,1.376.55,2.11,1.559,2.11a1.263,1.263,0,0,0,1.192-.826l.55.092a1.684,1.684,0,0,1-1.743,1.192c-1.284,0-2.11-1.009-2.11-2.568,0-1.651.826-2.66,2.018-2.66s1.926,1.009,1.926,2.477v.183Zm2.752-.459c-.092-1.1-.55-1.743-1.376-1.743s-1.284.642-1.468,1.743Zm4.495-.734c-.092-.642-.367-1.009-1.1-1.009-.642,0-1.009.367-1.009.826s.275.642,1.192.917a3.151,3.151,0,0,1,1.376.642,1.369,1.369,0,0,1,.275.917A1.548,1.548,0,0,1,53.7,27.238a1.526,1.526,0,0,1-1.743-1.651h.55a1.083,1.083,0,0,0,1.192,1.1c.734,0,1.192-.367,1.192-1.009a.614.614,0,0,0-.367-.642c-.183-.092-.183-.092-1.1-.459-.55-.183-.826-.275-1.009-.55a1.28,1.28,0,0,1-.275-.826c0-.826.642-1.376,1.651-1.376a1.5,1.5,0,0,1,1.651,1.468h-.734Zm3.944-1.376v.459H57.372L57.28,25.22v.55c0,.642.092.826.55.826a2.835,2.835,0,0,0,.734-.183v.55a2.277,2.277,0,0,1-.826.092c-.734,0-1.1-.275-1.1-1.009v-.917l.092-2.66h-.642V22.01h.734V20.542h.55V22.01Zm7.338,2.477c0,1.559-.826,2.66-2.11,2.66s-2.11-1.009-2.11-2.66c0-1.559.826-2.568,2.11-2.568S65.994,22.927,65.994,24.486Zm-3.669,0c0,1.284.642,2.11,1.559,2.11s1.559-.917,1.559-2.11c0-1.284-.642-2.11-1.559-2.11S62.325,23.2,62.325,24.486Zm5.412-2.477a2.279,2.279,0,0,1,.092.734v.275c.367-.826.734-1.192,1.284-1.192a1.7,1.7,0,0,1,.642.183v.55a1.13,1.13,0,0,0-.642-.183c-.367,0-.734.275-1.009.826a3.384,3.384,0,0,0-.275,1.559v2.2h-.55v-3.21a7.988,7.988,0,0,0-.092-1.743Zm5.5,0a1.788,1.788,0,0,1,.092.734,1.614,1.614,0,0,1,1.559-.917,1.393,1.393,0,0,1,1.468.826,4.562,4.562,0,0,1,.092,1.468v2.844H75.9V24.119c0-.826,0-1.009-.183-1.284a1.012,1.012,0,0,0-.917-.459c-.917,0-1.468.642-1.468,1.743v2.844h-.55v-3.3a6.171,6.171,0,0,0-.092-1.651Zm8.714,2.477c0,1.559-.826,2.66-2.11,2.66s-2.11-1.009-2.11-2.66c0-1.559.826-2.568,2.11-2.568C81.037,21.918,81.954,22.927,81.954,24.486Zm-3.669,0c0,1.284.642,2.11,1.559,2.11s1.559-.917,1.559-2.11c0-1.284-.642-2.11-1.559-2.11S78.285,23.2,78.285,24.486Zm6.879-2.477v.459H83.881l-.092,2.752v.55c0,.642.092.826.55.826a2.836,2.836,0,0,0,.734-.183v.55a2.277,2.277,0,0,1-.826.092c-.734,0-1.1-.275-1.1-1.009v-.917l.092-2.66H82.5V22.01h.734V20.542h.55V22.01Zm1.559-2.018v2.66a1.574,1.574,0,0,1,1.468-.734,1.657,1.657,0,0,1,1.376.642c.183.275.183.55.183,1.559v2.844H89.2V24.119c0-.826,0-1.009-.183-1.284a1.012,1.012,0,0,0-.917-.459c-.917,0-1.376.642-1.376,1.835v2.844h-.55V19.992Zm5.32.367a.459.459,0,1,1-.459-.459A.433.433,0,0,1,92.044,20.359Zm-.092,1.651v4.953H91.31V22.01Zm1.926,0a1.788,1.788,0,0,1,.092.734,1.614,1.614,0,0,1,1.559-.917A1.393,1.393,0,0,1,97,22.652a4.562,4.562,0,0,1,.092,1.468v2.844h-.55V24.119c0-.826,0-1.009-.183-1.284a1.012,1.012,0,0,0-.917-.459c-.917,0-1.468.642-1.468,1.743v2.844h-.55v-3.3a6.171,6.171,0,0,0-.092-1.651Zm8.714.459h-1.009a1.744,1.744,0,0,1,.459,1.192,1.374,1.374,0,0,1-.459,1.1c-.183.183-.367.275-1.192.459-.734.183-1.009.367-1.009.642,0,.183.183.275,1.009.367a3.915,3.915,0,0,1,1.651.367,1.4,1.4,0,0,1,.642,1.1c0,.917-.826,1.468-2.2,1.468-1.284,0-2.2-.55-2.2-1.468,0-.642.275-1.009,1.1-1.284q-.55-.138-.55-.55c0-.367.275-.55.917-.826a1.385,1.385,0,0,1-1.009-1.468,1.614,1.614,0,0,1,1.743-1.651,2.02,2.02,0,0,1,.734.092l1.468-.092v.55ZM98.74,27.7c0,.55.642.917,1.651.917s1.651-.367,1.651-.917c0-.642-.55-.917-1.651-.917C99.382,26.779,98.74,27.146,98.74,27.7Zm.459-4.036a1.1,1.1,0,0,0,2.2,0,1.137,1.137,0,0,0-1.1-1.192A1.086,1.086,0,0,0,99.2,23.661Zm5.5,2.935a.55.55,0,1,1-.55-.55A.592.592,0,0,1,104.7,26.6Z" transform="translate(-1.969 -1.646)"/></svg>