<?xml version="1.0" encoding="utf-8"?>
<!-- Generator: Adobe Illustrator 18.1.1, SVG Export Plug-In . SVG Version: 6.00 Build 0)  -->
<svg version="1.1" id="Ebene_7" xmlns="http://www.w3.org/2000/svg" xmlns:xlink="http://www.w3.org/1999/xlink" x="0px" y="0px"
	 viewBox="0 0 25 25" enable-background="new 0 0 25 25" xml:space="preserve">
<path fill="#FFFFFF" d="M5,1v23h16V1H5z M9.8,20h-2v-2h2V20z M9.8,16h-2v-2h2V16z M9.8,12h-2v-2h2V12z M13.8,20h-2v-2h2V20z
	 M13.8,16h-2v-2h2V16z M13.8,12h-2v-2h2V12z M17.8,20h-2v-2h2V20z M17.8,16h-2v-2h2V16z M17.8,12h-2v-2h2V12z M18,7H8V4h10V7z"/>
</svg>
